G04 PROTEUS GERBER X2 FILE*
%TF.GenerationSoftware,Labcenter,Proteus,8.6-SP2-Build23525*%
%TF.CreationDate,2017-05-05T12:43:17+00:00*%
%TF.FileFunction,Copper,L1,Top*%
%TF.FilePolarity,Positive*%
%TF.Part,Single*%
%FSLAX45Y45*%
%MOMM*%
G01*
%TA.AperFunction,Conductor*%
%ADD10C,0.762000*%
%ADD11C,0.508000*%
%TA.AperFunction,SMDPad,CuDef*%
%ADD12R,1.524000X1.016000*%
%TA.AperFunction,ComponentPad*%
%ADD13C,1.778000*%
%TA.AperFunction,ComponentPad*%
%ADD14C,1.625600*%
%ADD15C,1.524000*%
%TA.AperFunction,SMDPad,CuDef*%
%ADD16R,1.524000X2.540000*%
%TA.AperFunction,OtherPad,Unknown*%
%ADD17C,1.778000*%
%ADD18C,5.200000*%
%TA.AperFunction,Profile*%
%ADD19C,0.203200*%
%TD.AperFunction*%
D10*
X+635000Y+1397000D02*
X+889000Y+1143000D01*
X+317500Y+1082040D02*
X+320040Y+1079500D01*
X+571500Y+1079500D01*
X+635000Y+1143000D01*
D11*
X+317500Y+1397000D02*
X+444500Y+1524000D01*
X+762000Y+1524000D01*
X+889000Y+1397000D01*
D10*
X+762000Y+254000D02*
X+381000Y+254000D01*
X+1143000Y+1143000D02*
X+889000Y+1143000D01*
X+889000Y+1397000D02*
X+949960Y+1457960D01*
X+1143000Y+1457960D01*
X+1524000Y+1122680D02*
X+1447800Y+1143000D01*
X+1143000Y+1143000D01*
X+1143000Y+1457960D02*
X+1447800Y+1457960D01*
X+1524000Y+1483360D01*
X+381000Y+254000D02*
X+317500Y+317500D01*
X+317500Y+1082040D01*
X+1270000Y+254000D02*
X+1524000Y+508000D01*
X+1524000Y+1122680D01*
X+1524000Y+1483360D02*
X+1714500Y+1483360D01*
X+1778000Y+1419860D01*
X+1778000Y+381000D01*
X+1651000Y+254000D01*
D12*
X+1143000Y+1457960D03*
X+1143000Y+1143000D03*
X+317500Y+1397000D03*
X+317500Y+1082040D03*
D13*
X+762000Y+254000D03*
D14*
X+889000Y+1651000D03*
X+889000Y+1397000D03*
X+889000Y+1143000D03*
X+889000Y+889000D03*
X+635000Y+889000D03*
X+635000Y+1143000D03*
D15*
X+635000Y+1397000D03*
X+635000Y+1651000D03*
D16*
X+1524000Y+1483360D03*
X+1524000Y+1122680D03*
D17*
X+1270000Y+254000D03*
X+1651000Y+254000D03*
X+381000Y+254000D03*
D18*
X+2286000Y+1651000D03*
X+2286000Y+254000D03*
D19*
X+0Y+0D02*
X+2540000Y+0D01*
X+2540000Y+1905000D01*
X+0Y+1905000D01*
X+0Y+0D01*
M02*
