G04 PROTEUS GERBER X2 FILE*
%TF.GenerationSoftware,Labcenter,Proteus,8.6-SP2-Build23525*%
%TF.CreationDate,2017-05-05T12:43:17+00:00*%
%TF.FileFunction,Legend,Bot*%
%TF.FilePolarity,Positive*%
%TF.Part,Single*%
%FSLAX45Y45*%
%MOMM*%
G01*
%TA.AperFunction,Material*%
%ADD70C,0.203200*%
%ADD71C,0.063500*%
%TA.AperFunction,Profile*%
%ADD19C,0.203200*%
%TD.AperFunction*%
D70*
X+1270000Y+762000D02*
X+1270000Y+1778000D01*
X+1267473Y+1803967D01*
X+1260202Y+1827981D01*
X+1248652Y+1849577D01*
X+1233289Y+1868289D01*
X+1214577Y+1883652D01*
X+1192982Y+1895202D01*
X+1168968Y+1902473D01*
X+1143000Y+1905000D01*
X+127000Y+1905000D01*
X+101033Y+1902473D01*
X+77019Y+1895202D01*
X+55423Y+1883652D01*
X+36711Y+1868289D01*
X+21348Y+1849577D01*
X+9798Y+1827981D01*
X+2527Y+1803967D01*
X+0Y+1778000D01*
X+0Y+762000D01*
X+2527Y+736032D01*
X+9798Y+712018D01*
X+21348Y+690423D01*
X+36711Y+671711D01*
X+55423Y+656347D01*
X+77019Y+644798D01*
X+101033Y+637527D01*
X+127000Y+635000D01*
X+1143000Y+635000D01*
X+1168968Y+637527D01*
X+1192982Y+644798D01*
X+1214577Y+656347D01*
X+1233289Y+671711D01*
X+1248652Y+690423D01*
X+1260202Y+712018D01*
X+1267473Y+736032D01*
X+1270000Y+762000D01*
X+1206500Y+1778000D02*
X+1206283Y+1783247D01*
X+1204518Y+1793742D01*
X+1200826Y+1804237D01*
X+1194798Y+1814732D01*
X+1185576Y+1825112D01*
X+1175081Y+1832800D01*
X+1164586Y+1837718D01*
X+1154091Y+1840524D01*
X+1143596Y+1841497D01*
X+1143000Y+1841500D01*
X+1079500Y+1778000D02*
X+1079717Y+1783247D01*
X+1081482Y+1793742D01*
X+1085174Y+1804237D01*
X+1091202Y+1814732D01*
X+1100424Y+1825112D01*
X+1110919Y+1832800D01*
X+1121414Y+1837718D01*
X+1131909Y+1840524D01*
X+1142404Y+1841497D01*
X+1143000Y+1841500D01*
X+1079500Y+1778000D02*
X+1079717Y+1772753D01*
X+1081482Y+1762258D01*
X+1085174Y+1751763D01*
X+1091202Y+1741268D01*
X+1100424Y+1730888D01*
X+1110919Y+1723200D01*
X+1121414Y+1718282D01*
X+1131909Y+1715476D01*
X+1142404Y+1714503D01*
X+1143000Y+1714500D01*
X+1206500Y+1778000D02*
X+1206283Y+1772753D01*
X+1204518Y+1762258D01*
X+1200826Y+1751763D01*
X+1194798Y+1741268D01*
X+1185576Y+1730888D01*
X+1175081Y+1723200D01*
X+1164586Y+1718282D01*
X+1154091Y+1715476D01*
X+1143596Y+1714503D01*
X+1143000Y+1714500D01*
X-1460500Y+889000D02*
X+0Y+889000D01*
X+0Y+1651000D01*
X-1460500Y+1651000D01*
X-1460500Y+889000D01*
X-1206500Y+1651000D02*
X-1206500Y+1714500D01*
X-1016000Y+1714500D02*
X-1016000Y+1651000D01*
X-1016000Y+1714500D02*
X-1206500Y+1714500D01*
X-1016000Y+889000D02*
X-1016000Y+825500D01*
X-1206500Y+825500D01*
X-1206500Y+889000D01*
X-508000Y+825500D02*
X+0Y+825500D01*
X+0Y+1714500D01*
X-508000Y+1714500D01*
X-508000Y+825500D01*
D71*
X+1394920Y+1755775D02*
X+1405080Y+1755775D01*
X+1435560Y+1755775D02*
X+1450800Y+1755775D01*
X+1506680Y+1755775D02*
X+1521920Y+1755775D01*
X+1527000Y+1755775D02*
X+1542240Y+1755775D01*
X+1593040Y+1755775D02*
X+1603200Y+1755775D01*
X+1394920Y+1760855D02*
X+1405080Y+1760855D01*
X+1440640Y+1760855D02*
X+1455880Y+1760855D01*
X+1501600Y+1760855D02*
X+1516840Y+1760855D01*
X+1532080Y+1760855D02*
X+1547320Y+1760855D01*
X+1593040Y+1760855D02*
X+1603200Y+1760855D01*
X+1394920Y+1765935D02*
X+1405080Y+1765935D01*
X+1445720Y+1765935D02*
X+1460960Y+1765935D01*
X+1496520Y+1765935D02*
X+1511760Y+1765935D01*
X+1537160Y+1765935D02*
X+1552400Y+1765935D01*
X+1593040Y+1765935D02*
X+1603200Y+1765935D01*
X+1394920Y+1771015D02*
X+1405080Y+1771015D01*
X+1450800Y+1771015D02*
X+1460960Y+1771015D01*
X+1496520Y+1771015D02*
X+1506680Y+1771015D01*
X+1537160Y+1771015D02*
X+1552400Y+1771015D01*
X+1593040Y+1771015D02*
X+1603200Y+1771015D01*
X+1394920Y+1776095D02*
X+1405080Y+1776095D01*
X+1450800Y+1776095D02*
X+1466040Y+1776095D01*
X+1491440Y+1776095D02*
X+1506680Y+1776095D01*
X+1542240Y+1776095D02*
X+1557480Y+1776095D01*
X+1593040Y+1776095D02*
X+1603200Y+1776095D01*
X+1394920Y+1781175D02*
X+1405080Y+1781175D01*
X+1455880Y+1781175D02*
X+1471120Y+1781175D01*
X+1486360Y+1781175D02*
X+1501600Y+1781175D01*
X+1547320Y+1781175D02*
X+1562560Y+1781175D01*
X+1593040Y+1781175D02*
X+1603200Y+1781175D01*
X+1394920Y+1786255D02*
X+1405080Y+1786255D01*
X+1460960Y+1786255D02*
X+1476200Y+1786255D01*
X+1481280Y+1786255D02*
X+1496520Y+1786255D01*
X+1552400Y+1786255D02*
X+1562560Y+1786255D01*
X+1593040Y+1786255D02*
X+1603200Y+1786255D01*
X+1394920Y+1791335D02*
X+1405080Y+1791335D01*
X+1466040Y+1791335D02*
X+1476200Y+1791335D01*
X+1481280Y+1791335D02*
X+1491440Y+1791335D01*
X+1552400Y+1791335D02*
X+1567640Y+1791335D01*
X+1593040Y+1791335D02*
X+1603200Y+1791335D01*
X+1394920Y+1796415D02*
X+1405080Y+1796415D01*
X+1466040Y+1796415D02*
X+1491440Y+1796415D01*
X+1547320Y+1796415D02*
X+1603200Y+1796415D01*
X+1394920Y+1801495D02*
X+1405080Y+1801495D01*
X+1471120Y+1801495D02*
X+1486360Y+1801495D01*
X+1537160Y+1801495D02*
X+1603200Y+1801495D01*
X+1394920Y+1806575D02*
X+1405080Y+1806575D01*
X+1471120Y+1806575D02*
X+1486360Y+1806575D01*
X+1537160Y+1806575D02*
X+1552400Y+1806575D01*
X+1593040Y+1806575D02*
X+1603200Y+1806575D01*
X+1394920Y+1811655D02*
X+1405080Y+1811655D01*
X+1466040Y+1811655D02*
X+1476200Y+1811655D01*
X+1481280Y+1811655D02*
X+1491440Y+1811655D01*
X+1532080Y+1811655D02*
X+1547320Y+1811655D01*
X+1593040Y+1811655D02*
X+1603200Y+1811655D01*
X+1394920Y+1816735D02*
X+1405080Y+1816735D01*
X+1415240Y+1816735D02*
X+1430480Y+1816735D01*
X+1460960Y+1816735D02*
X+1476200Y+1816735D01*
X+1481280Y+1816735D02*
X+1496520Y+1816735D01*
X+1532080Y+1816735D02*
X+1542240Y+1816735D01*
X+1593040Y+1816735D02*
X+1603200Y+1816735D01*
X+1394920Y+1821815D02*
X+1405080Y+1821815D01*
X+1410160Y+1821815D02*
X+1430480Y+1821815D01*
X+1455880Y+1821815D02*
X+1471120Y+1821815D01*
X+1486360Y+1821815D02*
X+1501600Y+1821815D01*
X+1532080Y+1821815D02*
X+1542240Y+1821815D01*
X+1593040Y+1821815D02*
X+1603200Y+1821815D01*
X+1394920Y+1826895D02*
X+1420320Y+1826895D01*
X+1455880Y+1826895D02*
X+1466040Y+1826895D01*
X+1491440Y+1826895D02*
X+1501600Y+1826895D01*
X+1532080Y+1826895D02*
X+1542240Y+1826895D01*
X+1593040Y+1826895D02*
X+1603200Y+1826895D01*
X+1394920Y+1831975D02*
X+1415240Y+1831975D01*
X+1450800Y+1831975D02*
X+1466040Y+1831975D01*
X+1491440Y+1831975D02*
X+1506680Y+1831975D01*
X+1537160Y+1831975D02*
X+1552400Y+1831975D01*
X+1593040Y+1831975D02*
X+1603200Y+1831975D01*
X+1394920Y+1837055D02*
X+1405080Y+1837055D01*
X+1445720Y+1837055D02*
X+1460960Y+1837055D01*
X+1496520Y+1837055D02*
X+1511760Y+1837055D01*
X+1537160Y+1837055D02*
X+1603200Y+1837055D01*
X+1394920Y+1842135D02*
X+1405080Y+1842135D01*
X+1440640Y+1842135D02*
X+1455880Y+1842135D01*
X+1501600Y+1842135D02*
X+1516840Y+1842135D01*
X+1547320Y+1842135D02*
X+1603200Y+1842135D01*
D19*
X+0Y+0D02*
X+2540000Y+0D01*
X+2540000Y+1905000D01*
X+0Y+1905000D01*
X+0Y+0D01*
D71*
X+307872Y+399415D02*
X+338352Y+399415D01*
X+384072Y+399415D02*
X+394232Y+399415D01*
X+424712Y+399415D02*
X+460272Y+399415D01*
X+297712Y+404495D02*
X+348512Y+404495D01*
X+384072Y+404495D02*
X+394232Y+404495D01*
X+414552Y+404495D02*
X+470432Y+404495D01*
X+287552Y+409575D02*
X+307872Y+409575D01*
X+338352Y+409575D02*
X+358672Y+409575D01*
X+384072Y+409575D02*
X+394232Y+409575D01*
X+409472Y+409575D02*
X+424712Y+409575D01*
X+455192Y+409575D02*
X+475512Y+409575D01*
X+287552Y+414655D02*
X+297712Y+414655D01*
X+348512Y+414655D02*
X+358672Y+414655D01*
X+384072Y+414655D02*
X+394232Y+414655D01*
X+404392Y+414655D02*
X+419632Y+414655D01*
X+465352Y+414655D02*
X+475512Y+414655D01*
X+287552Y+419735D02*
X+297712Y+419735D01*
X+353592Y+419735D02*
X+363752Y+419735D01*
X+384072Y+419735D02*
X+394232Y+419735D01*
X+404392Y+419735D02*
X+414552Y+419735D01*
X+470432Y+419735D02*
X+480592Y+419735D01*
X+287552Y+424815D02*
X+297712Y+424815D01*
X+353592Y+424815D02*
X+363752Y+424815D01*
X+384072Y+424815D02*
X+394232Y+424815D01*
X+404392Y+424815D02*
X+414552Y+424815D01*
X+470432Y+424815D02*
X+480592Y+424815D01*
X+287552Y+429895D02*
X+297712Y+429895D01*
X+358672Y+429895D02*
X+368832Y+429895D01*
X+384072Y+429895D02*
X+394232Y+429895D01*
X+404392Y+429895D02*
X+414552Y+429895D01*
X+287552Y+434975D02*
X+323112Y+434975D01*
X+358672Y+434975D02*
X+368832Y+434975D01*
X+384072Y+434975D02*
X+394232Y+434975D01*
X+409472Y+434975D02*
X+424712Y+434975D01*
X+287552Y+440055D02*
X+323112Y+440055D01*
X+358672Y+440055D02*
X+368832Y+440055D01*
X+384072Y+440055D02*
X+394232Y+440055D01*
X+409472Y+440055D02*
X+450112Y+440055D01*
X+358672Y+445135D02*
X+368832Y+445135D01*
X+384072Y+445135D02*
X+394232Y+445135D01*
X+419632Y+445135D02*
X+465352Y+445135D01*
X+358672Y+450215D02*
X+368832Y+450215D01*
X+384072Y+450215D02*
X+394232Y+450215D01*
X+439952Y+450215D02*
X+470432Y+450215D01*
X+358672Y+455295D02*
X+368832Y+455295D01*
X+384072Y+455295D02*
X+394232Y+455295D01*
X+460272Y+455295D02*
X+475512Y+455295D01*
X+292632Y+460375D02*
X+297712Y+460375D01*
X+353592Y+460375D02*
X+363752Y+460375D01*
X+384072Y+460375D02*
X+394232Y+460375D01*
X+465352Y+460375D02*
X+475512Y+460375D01*
X+287552Y+465455D02*
X+302792Y+465455D01*
X+353592Y+465455D02*
X+363752Y+465455D01*
X+384072Y+465455D02*
X+394232Y+465455D01*
X+404392Y+465455D02*
X+414552Y+465455D01*
X+465352Y+465455D02*
X+475512Y+465455D01*
X+292632Y+470535D02*
X+302792Y+470535D01*
X+348512Y+470535D02*
X+358672Y+470535D01*
X+384072Y+470535D02*
X+394232Y+470535D01*
X+404392Y+470535D02*
X+419632Y+470535D01*
X+465352Y+470535D02*
X+475512Y+470535D01*
X+292632Y+475615D02*
X+312952Y+475615D01*
X+338352Y+475615D02*
X+358672Y+475615D01*
X+384072Y+475615D02*
X+394232Y+475615D01*
X+409472Y+475615D02*
X+424712Y+475615D01*
X+455192Y+475615D02*
X+470432Y+475615D01*
X+297712Y+480695D02*
X+353592Y+480695D01*
X+384072Y+480695D02*
X+394232Y+480695D01*
X+414552Y+480695D02*
X+465352Y+480695D01*
X+307872Y+485775D02*
X+343432Y+485775D01*
X+384072Y+485775D02*
X+394232Y+485775D01*
X+424712Y+485775D02*
X+460272Y+485775D01*
X+1228363Y+399415D02*
X+1243603Y+399415D01*
X+1294403Y+399415D02*
X+1324883Y+399415D01*
X+1228363Y+404495D02*
X+1243603Y+404495D01*
X+1289323Y+404495D02*
X+1329963Y+404495D01*
X+1223283Y+409575D02*
X+1248683Y+409575D01*
X+1284243Y+409575D02*
X+1299483Y+409575D01*
X+1319803Y+409575D02*
X+1335043Y+409575D01*
X+1223283Y+414655D02*
X+1233443Y+414655D01*
X+1238523Y+414655D02*
X+1248683Y+414655D01*
X+1284243Y+414655D02*
X+1294403Y+414655D01*
X+1324883Y+414655D02*
X+1335043Y+414655D01*
X+1223283Y+419735D02*
X+1233443Y+419735D01*
X+1238523Y+419735D02*
X+1248683Y+419735D01*
X+1279163Y+419735D02*
X+1289323Y+419735D01*
X+1329963Y+419735D02*
X+1340123Y+419735D01*
X+1218203Y+424815D02*
X+1233443Y+424815D01*
X+1238523Y+424815D02*
X+1253763Y+424815D01*
X+1279163Y+424815D02*
X+1289323Y+424815D01*
X+1329963Y+424815D02*
X+1340123Y+424815D01*
X+1218203Y+429895D02*
X+1228363Y+429895D01*
X+1243603Y+429895D02*
X+1253763Y+429895D01*
X+1279163Y+429895D02*
X+1289323Y+429895D01*
X+1329963Y+429895D02*
X+1340123Y+429895D01*
X+1218203Y+434975D02*
X+1228363Y+434975D01*
X+1243603Y+434975D02*
X+1253763Y+434975D01*
X+1279163Y+434975D02*
X+1289323Y+434975D01*
X+1329963Y+434975D02*
X+1340123Y+434975D01*
X+1213123Y+440055D02*
X+1223283Y+440055D01*
X+1248683Y+440055D02*
X+1258843Y+440055D01*
X+1279163Y+440055D02*
X+1289323Y+440055D01*
X+1329963Y+440055D02*
X+1340123Y+440055D01*
X+1213123Y+445135D02*
X+1223283Y+445135D01*
X+1248683Y+445135D02*
X+1258843Y+445135D01*
X+1279163Y+445135D02*
X+1289323Y+445135D01*
X+1329963Y+445135D02*
X+1340123Y+445135D01*
X+1213123Y+450215D02*
X+1223283Y+450215D01*
X+1248683Y+450215D02*
X+1258843Y+450215D01*
X+1279163Y+450215D02*
X+1289323Y+450215D01*
X+1329963Y+450215D02*
X+1340123Y+450215D01*
X+1208043Y+455295D02*
X+1218203Y+455295D01*
X+1253763Y+455295D02*
X+1263923Y+455295D01*
X+1279163Y+455295D02*
X+1289323Y+455295D01*
X+1329963Y+455295D02*
X+1340123Y+455295D01*
X+1208043Y+460375D02*
X+1218203Y+460375D01*
X+1253763Y+460375D02*
X+1263923Y+460375D01*
X+1279163Y+460375D02*
X+1289323Y+460375D01*
X+1329963Y+460375D02*
X+1340123Y+460375D01*
X+1202963Y+465455D02*
X+1218203Y+465455D01*
X+1253763Y+465455D02*
X+1269003Y+465455D01*
X+1279163Y+465455D02*
X+1289323Y+465455D01*
X+1329963Y+465455D02*
X+1340123Y+465455D01*
X+1202963Y+470535D02*
X+1213123Y+470535D01*
X+1258843Y+470535D02*
X+1269003Y+470535D01*
X+1284243Y+470535D02*
X+1294403Y+470535D01*
X+1324883Y+470535D02*
X+1335043Y+470535D01*
X+1202963Y+475615D02*
X+1213123Y+475615D01*
X+1258843Y+475615D02*
X+1269003Y+475615D01*
X+1284243Y+475615D02*
X+1299483Y+475615D01*
X+1319803Y+475615D02*
X+1335043Y+475615D01*
X+1197883Y+480695D02*
X+1213123Y+480695D01*
X+1258843Y+480695D02*
X+1274083Y+480695D01*
X+1289323Y+480695D02*
X+1329963Y+480695D01*
X+1197883Y+485775D02*
X+1208043Y+485775D01*
X+1263923Y+485775D02*
X+1274083Y+485775D01*
X+1294403Y+485775D02*
X+1324883Y+485775D01*
X+1609363Y+399415D02*
X+1624603Y+399415D01*
X+1680483Y+399415D02*
X+1705883Y+399415D01*
X+1609363Y+404495D02*
X+1624603Y+404495D01*
X+1670323Y+404495D02*
X+1710963Y+404495D01*
X+1604283Y+409575D02*
X+1629683Y+409575D01*
X+1665243Y+409575D02*
X+1680483Y+409575D01*
X+1705883Y+409575D02*
X+1716043Y+409575D01*
X+1604283Y+414655D02*
X+1614443Y+414655D01*
X+1619523Y+414655D02*
X+1629683Y+414655D01*
X+1665243Y+414655D02*
X+1675403Y+414655D01*
X+1705883Y+414655D02*
X+1721123Y+414655D01*
X+1604283Y+419735D02*
X+1614443Y+419735D01*
X+1619523Y+419735D02*
X+1629683Y+419735D01*
X+1660163Y+419735D02*
X+1670323Y+419735D01*
X+1710963Y+419735D02*
X+1721123Y+419735D01*
X+1599203Y+424815D02*
X+1614443Y+424815D01*
X+1619523Y+424815D02*
X+1634763Y+424815D01*
X+1660163Y+424815D02*
X+1670323Y+424815D01*
X+1599203Y+429895D02*
X+1609363Y+429895D01*
X+1624603Y+429895D02*
X+1634763Y+429895D01*
X+1660163Y+429895D02*
X+1670323Y+429895D01*
X+1599203Y+434975D02*
X+1609363Y+434975D01*
X+1624603Y+434975D02*
X+1634763Y+434975D01*
X+1660163Y+434975D02*
X+1670323Y+434975D01*
X+1594123Y+440055D02*
X+1604283Y+440055D01*
X+1629683Y+440055D02*
X+1639843Y+440055D01*
X+1660163Y+440055D02*
X+1675403Y+440055D01*
X+1594123Y+445135D02*
X+1604283Y+445135D01*
X+1629683Y+445135D02*
X+1639843Y+445135D01*
X+1665243Y+445135D02*
X+1675403Y+445135D01*
X+1705883Y+445135D02*
X+1721123Y+445135D01*
X+1594123Y+450215D02*
X+1604283Y+450215D01*
X+1629683Y+450215D02*
X+1639843Y+450215D01*
X+1670323Y+450215D02*
X+1721123Y+450215D01*
X+1589043Y+455295D02*
X+1599203Y+455295D01*
X+1634763Y+455295D02*
X+1644923Y+455295D01*
X+1675403Y+455295D02*
X+1700803Y+455295D01*
X+1705883Y+455295D02*
X+1716043Y+455295D01*
X+1589043Y+460375D02*
X+1599203Y+460375D01*
X+1634763Y+460375D02*
X+1644923Y+460375D01*
X+1705883Y+460375D02*
X+1716043Y+460375D01*
X+1583963Y+465455D02*
X+1599203Y+465455D01*
X+1634763Y+465455D02*
X+1650003Y+465455D01*
X+1705883Y+465455D02*
X+1716043Y+465455D01*
X+1583963Y+470535D02*
X+1594123Y+470535D01*
X+1639843Y+470535D02*
X+1650003Y+470535D01*
X+1705883Y+470535D02*
X+1716043Y+470535D01*
X+1583963Y+475615D02*
X+1594123Y+475615D01*
X+1639843Y+475615D02*
X+1650003Y+475615D01*
X+1705883Y+475615D02*
X+1716043Y+475615D01*
X+1578883Y+480695D02*
X+1594123Y+480695D01*
X+1639843Y+480695D02*
X+1655083Y+480695D01*
X+1665243Y+480695D02*
X+1710963Y+480695D01*
X+1578883Y+485775D02*
X+1589043Y+485775D01*
X+1644923Y+485775D02*
X+1655083Y+485775D01*
X+1665243Y+485775D02*
X+1710963Y+485775D01*
X+671691Y+399415D02*
X+681851Y+399415D01*
X+783451Y+399415D02*
X+793611Y+399415D01*
X+834251Y+399415D02*
X+844411Y+399415D01*
X+671691Y+404495D02*
X+681851Y+404495D01*
X+783451Y+404495D02*
X+793611Y+404495D01*
X+834251Y+404495D02*
X+844411Y+404495D01*
X+671691Y+409575D02*
X+681851Y+409575D01*
X+783451Y+409575D02*
X+793611Y+409575D01*
X+834251Y+409575D02*
X+844411Y+409575D01*
X+671691Y+414655D02*
X+681851Y+414655D01*
X+783451Y+414655D02*
X+793611Y+414655D01*
X+834251Y+414655D02*
X+844411Y+414655D01*
X+671691Y+419735D02*
X+681851Y+419735D01*
X+783451Y+419735D02*
X+793611Y+419735D01*
X+834251Y+419735D02*
X+844411Y+419735D01*
X+671691Y+424815D02*
X+681851Y+424815D01*
X+783451Y+424815D02*
X+793611Y+424815D01*
X+834251Y+424815D02*
X+844411Y+424815D01*
X+671691Y+429895D02*
X+681851Y+429895D01*
X+783451Y+429895D02*
X+793611Y+429895D01*
X+834251Y+429895D02*
X+844411Y+429895D01*
X+671691Y+434975D02*
X+681851Y+434975D01*
X+737731Y+434975D02*
X+793611Y+434975D01*
X+834251Y+434975D02*
X+844411Y+434975D01*
X+671691Y+440055D02*
X+681851Y+440055D01*
X+732651Y+440055D02*
X+793611Y+440055D01*
X+834251Y+440055D02*
X+844411Y+440055D01*
X+671691Y+445135D02*
X+681851Y+445135D01*
X+727571Y+445135D02*
X+742811Y+445135D01*
X+783451Y+445135D02*
X+793611Y+445135D01*
X+834251Y+445135D02*
X+844411Y+445135D01*
X+671691Y+450215D02*
X+681851Y+450215D01*
X+722491Y+450215D02*
X+737731Y+450215D01*
X+783451Y+450215D02*
X+793611Y+450215D01*
X+834251Y+450215D02*
X+844411Y+450215D01*
X+671691Y+455295D02*
X+681851Y+455295D01*
X+722491Y+455295D02*
X+732651Y+455295D01*
X+783451Y+455295D02*
X+793611Y+455295D01*
X+834251Y+455295D02*
X+844411Y+455295D01*
X+671691Y+460375D02*
X+681851Y+460375D01*
X+692011Y+460375D02*
X+707251Y+460375D01*
X+722491Y+460375D02*
X+732651Y+460375D01*
X+783451Y+460375D02*
X+793611Y+460375D01*
X+834251Y+460375D02*
X+844411Y+460375D01*
X+671691Y+465455D02*
X+681851Y+465455D01*
X+686931Y+465455D02*
X+707251Y+465455D01*
X+722491Y+465455D02*
X+732651Y+465455D01*
X+783451Y+465455D02*
X+793611Y+465455D01*
X+834251Y+465455D02*
X+844411Y+465455D01*
X+671691Y+470535D02*
X+697091Y+470535D01*
X+722491Y+470535D02*
X+737731Y+470535D01*
X+783451Y+470535D02*
X+793611Y+470535D01*
X+834251Y+470535D02*
X+844411Y+470535D01*
X+671691Y+475615D02*
X+692011Y+475615D01*
X+727571Y+475615D02*
X+742811Y+475615D01*
X+783451Y+475615D02*
X+793611Y+475615D01*
X+834251Y+475615D02*
X+844411Y+475615D01*
X+671691Y+480695D02*
X+681851Y+480695D01*
X+727571Y+480695D02*
X+793611Y+480695D01*
X+803771Y+480695D02*
X+874891Y+480695D01*
X+671691Y+485775D02*
X+681851Y+485775D01*
X+737731Y+485775D02*
X+793611Y+485775D01*
X+803771Y+485775D02*
X+874891Y+485775D01*
M02*
